<?xml version="1.0" encoding="utf-8"?>
<!-- Generator: Adobe Illustrator 18.0.0, SVG Export Plug-In . SVG Version: 6.00 Build 0)  -->
<!DOCTYPE svg PUBLIC "-//W3C//DTD SVG 1.1//EN" "http://www.w3.org/Graphics/SVG/1.1/DTD/svg11.dtd">
<svg version="1.1" xmlns="http://www.w3.org/2000/svg" xmlns:xlink="http://www.w3.org/1999/xlink" x="0px" y="0px"
	 viewBox="0 0 2864 732" enable-background="new 0 0 2864 732" xml:space="preserve">
<g id="Calque_1">
	<circle fill="#EFC973" cx="-304.6" cy="667.4" r="241.1"/>
	<g id="Calque_2">
		<path d="M-369.5,843.8L-481.3,590h9.9h32.8h2h8l59,135.8c0,0,75.4-147,9.5-258.3c35.9,28.4,66,57.6,120.4,67.1
			c47.4,48.9,97,68.2,104.2,71.8c53.6,26.8,15.1,105.3,15.1,105.3s-6.2-44.9-58.5-66.9c-7.2-3-85.7-38.3-85.7-38.3L-369.5,843.8z"/>
		<path d="M-255.1,758.7c34.4,15.4,43.9,15.5,53.5,11.8c9.6-3.7,16.5-10.3,20.7-19.7c4.1-9.3,4.3-18.9,0.6-28.6
			s-10.2-16.7-19.7-20.9l-34.1-15l-15.1,34.2l-15.1,34.2l-20.1,45.5l-30.2,68.4l-45.7-20.2l30.2-68.4l35.2-79.7l35.2-79.7l45.7,20.2
			l34.1,15c21.9,9.7,37.3,25.7,46,48.4c8.8,22.6,8.2,44.9-1.4,66.8c-9.7,21.9-25.7,37.3-48.3,45.9c-22.6,8.6-44.8,8.1-91.6-12.8
			L-255.1,758.7z"/>
		<path fill="#EFC973" d="M-236.5,585.2c0,0-6.3-2.3-14-2.3c-7.7,0-17.7-16.1-17.7-16.1s9.9,2.9,17.7,2.9
			C-242.8,569.7-236.5,585.2-236.5,585.2z"/>
	</g>
</g>
<g id="Calque_3">
	<g>
		<g id="Calque_1_2_">
			<circle cx="-302" cy="151" r="241.1"/>
		</g>
		<g id="Calque_2_2_">
			<path fill="#EFC973" d="M-366.9,327.4L-478.7,73.6h9.9h32.8h2h8l59,135.8c0,0,75.4-147,9.5-258.3c35.9,28.4,66,57.6,120.4,67.1
				c47.4,48.9,97,68.2,104.2,71.8c53.6,26.8,15.1,105.3,15.1,105.3s-6.2-44.9-58.5-66.9c-7.2-3-85.7-38.3-85.7-38.3L-366.9,327.4z"
				/>
			<path fill="#EFC973" d="M-252.5,242.3c34.4,15.4,43.9,15.5,53.5,11.8s16.5-10.3,20.7-19.7c4.1-9.3,4.3-18.9,0.6-28.6
				c-3.6-9.7-10.2-16.7-19.7-20.9l-34.1-15l-15.1,34.2l-15.1,34.2l-20.1,45.5l-30.2,68.4l-45.7-20.2l30.2-68.4l35.2-79.7l35.2-79.7
				l45.7,20.2l34.1,15c21.9,9.7,37.3,25.7,46,48.4s8.2,44.9-1.4,66.8c-9.7,21.9-25.7,37.3-48.3,45.9c-22.6,8.6-44.8,8.1-91.6-12.8
				L-252.5,242.3z"/>
			<path d="M-233.9,68.8c0,0-6.3-2.3-14-2.3s-17.7-16.1-17.7-16.1s9.9,2.9,17.7,2.9C-240.2,53.3-233.9,68.8-233.9,68.8z"/>
		</g>
	</g>
	<g>
		<path fill="#EFC973" d="M338.2,646.2L126.6,43.5h18.7h62h3.8h15.2l111.6,318.3L449.5,43.5h19.9h81L338.2,646.2z"/>
		<path fill="#EFC973" d="M567,457.5l-25.4,56.2h-13.6h-3.1h-50.9h-16.7l177-396.7l177.5,396.7h-16.7h-50.9h-3.4h-13.6l-25.2-56.4
			l-1.2-2.7H568L567,457.5z M669,385.6l-34.4-81.1L600,385.6H669z"/>
		<path fill="#EFC973" d="M1075.4,340.1V124.3h78.2v397.6L919.4,298.6v216h-78.2V117L1075.4,340.1z"/>
		<path fill="#EFC973" d="M1337.6,397.4V260.9V124.3h78.2h58.4c37.5,0,69.7,13.3,96.6,40.2c26.9,26.9,40.2,59.1,40.2,96.6
			s-13.3,69.7-40.2,96.4c-26.9,26.6-59.1,40-96.6,40h-58.4v117.2h-78.2V397.4z M1474.2,319.7c16.2,0,30-5.8,41.4-17.2
			c11.4-11.4,17.2-25.2,17.2-41.4c0-16-5.8-29.8-17.2-41.4c-11.4-11.6-25.2-17.4-41.4-17.4h-58.4v58.6v58.6L1474.2,319.7z"/>
		<path fill="#EFC973" d="M1723.1,124.3v156.2h117V124.3h78.2v390.4h-78.2V358.5h-117v156.2h-78.2V124.3H1723.1z"/>
		<path fill="#EFC973" d="M2056.9,457.5l-25.4,56.2h-13.6h-3.1h-50.9h-16.7l177-396.7l177.5,396.7H2285h-50.9h-3.4h-13.6l-25.2-56.4
			l-1.2-2.7h-132.9L2056.9,457.5z M2158.8,385.6l-34.4-81.1l-34.6,81.1H2158.8z"/>
		<path fill="#EFC973" d="M2617.6,365.3V43.5h94.4v614.9l-282.6-318.6v174.8H2335V34.8L2617.6,365.3z"/>
	</g>
	<circle fill="#EFC973" cx="1466" cy="613" r="71"/>
	<g>
		<path d="M1497.4,613.4c-0.2,8.1-0.6,15-3.4,21.1c3.7,2.3,8.1,5,12,4.9l-0.1,15.2c-6.7,0-12.3-2.7-15.6-4.6
			c-2.3-1.4-4.2-2.4-5.7-3.7c-1.2,1.5-1.8,2-3.4,3.2c-4.7,3.6-13.5,5.7-19.8,5.7c-7.5,0-14.3-3-19.3-7.7c-5-4.9-7.8-11.1-7.8-18.5
			c0.2-9.5,5.8-14.7,10.8-19.6c0.2-0.2,1.2-1,1.4-1.1c-2.9-3.9-5.1-10.6-5.3-15c0-6.4,2.9-10.6,6.3-14s10.5-7.4,16.9-7.4
			c5.4,0,10.5,1.9,14.6,5.2c4,3.3,7,7.8,8.1,13.2l-16.3,3.5c-0.3-1.5-1.1-2.8-2.2-3.7c-1.1-0.9-2.6-1.5-4.2-1.5
			c-3.3,0-5.7,1.8-6.3,4.9c-0.3,1.7,3.6,8.7,4.1,9.6c1.5,2.5,4.9,7.5,10.3,12.9c1.6,1.6,6.4,6.9,8.5,8.8c0.7-3,0.6-6.4,0.9-11
			L1497.4,613.4z M1472.1,635.6c-1.9-1.7-11-9.1-15.6-16.6c-3,2.1-6.6,4.6-6.5,10.2c0,2.7,1.7,5.9,3.6,7.6c1.9,1.9,4.9,2.3,8,2.3
			c2.5,0,7.9-1.5,9.7-2.9C1471.7,636.1,1471.8,636,1472.1,635.6L1472.1,635.6z"/>
	</g>
	<g>
		<path d="M508.9,648.7l-5.1-5l-21.4-55.3l-23.2,59.6l-5.2-4.1l-28.9-73.4l9.5-3.9l22.9,59.2l21.6-55.9l5.2-3.7l23.3,59.2l22.6-58.5
			l9.7,3.6L508.9,648.7z"/>
		<path d="M548.5,644.9v-75.6h44.7l-3.8,8.6h-30.8v24.7h30.2v8.6h-30.2v25.1h32.3l2.9,8.6H548.5z"/>
		<path d="M653.4,632.9c-1.3,2.6-3.1,4.8-5.3,6.5c-2.3,1.8-5.1,3.1-8.4,4.1c-3.3,0.9-7,1.4-11,1.4h-23.2v-75.6h16.8
			c5.5,0,9.9,0.6,13.4,1.9c3.5,1.2,6.2,2.8,8.2,4.7c2,1.9,3.4,4,4.1,6.3c0.8,2.3,1.1,4.6,1.1,6.9c0,3.6-0.7,6.7-2.2,9.3
			c-1.5,2.5-3.8,4.8-6.8,6.8c4.9,1.2,8.7,3.5,11.3,6.8c2.6,3.3,3.9,7.4,3.9,12.4C655.3,627.4,654.7,630.3,653.4,632.9z M636.8,584.3
			c-0.9-1.6-2.1-2.8-3.7-3.8c-1.6-0.9-3.4-1.6-5.6-2c-2.1-0.4-4.5-0.6-6.9-0.6h-5.1v24.6h5.3c3.2,0,5.9-0.3,8.1-0.9
			c2.2-0.6,4-1.4,5.3-2.5c1.3-1.1,2.3-2.4,2.9-3.9c0.6-1.5,0.9-3.2,0.9-5.1C638.2,587.8,637.7,585.8,636.8,584.3z M643.7,619.2
			c-0.5-1.5-1.5-2.9-2.9-4.1c-1.4-1.2-3.3-2.2-5.8-2.9c-2.4-0.8-5.6-1.1-9.5-1.1h-10v25.3h11.7c3.4,0,6.2-0.4,8.5-1.1
			c2.3-0.8,4-1.8,5.3-3c1.3-1.2,2.2-2.6,2.7-4c0.5-1.5,0.8-2.9,0.8-4.4C644.5,622.3,644.3,620.7,643.7,619.2z"/>
		<path d="M767.8,620.2c-1.4,4.5-3.7,8.6-6.8,12.3c-3.2,3.6-7.3,6.6-12.4,8.9c-5.1,2.3-11.4,3.5-18.9,3.5h-28.8v-75.6h27.5
			c8.1,0,14.8,1.2,20.1,3.5c5.3,2.4,9.6,5.4,12.8,9c3.2,3.6,5.4,7.7,6.7,12.1c1.3,4.4,2,8.7,2,12.9
			C769.9,611.2,769.2,615.7,767.8,620.2z M756.8,595.1c-1.5-3.6-3.6-6.6-6.3-9.2c-2.7-2.5-5.9-4.5-9.6-5.9
			c-3.7-1.4-7.9-2.1-12.5-2.1h-17.5v58.4h18.2c4,0,7.8-0.6,11.4-1.9c3.6-1.3,6.8-3.2,9.5-5.7c2.8-2.5,5-5.6,6.6-9.3
			c1.6-3.7,2.5-7.9,2.5-12.7C759.1,602.6,758.3,598.7,756.8,595.1z"/>
		<path d="M784.6,644.9v-75.6h44.7l-3.8,8.6h-30.8v24.7h30.2v8.6h-30.2v25.1h32.3l2.9,8.6H784.6z"/>
		<path d="M868.5,648.1l-5.2-4.4l-30.2-73.2l9.3-3.8l24.6,59.1l24.6-59.1l9.2,3.8L868.5,648.1z"/>
		<path d="M909.6,644.9v-75.6h44.7l-3.8,8.6h-30.8v24.7h30.2v8.6h-30.2v25.1h32.3l2.9,8.6H909.6z"/>
		<path d="M966.5,644.9v-75.6h10v67h32.7l3.8,8.6H966.5z"/>
		<path d="M1096.6,622.5c-2.1,4.7-5,8.8-8.6,12.4c-3.6,3.5-7.9,6.3-12.9,8.3c-4.9,2-10.2,3-15.9,3s-11-1-15.9-3
			c-4.9-2-9.2-4.8-12.8-8.3c-3.6-3.5-6.5-7.6-8.6-12.4c-2.1-4.7-3.1-9.8-3.1-15.3c0-5.5,1-10.5,3.1-15.3c2.1-4.7,4.9-8.8,8.6-12.4
			c3.6-3.5,7.9-6.3,12.8-8.3c4.9-2,10.2-3,15.9-3s11,1,15.9,3c4.9,2,9.2,4.8,12.9,8.3c3.6,3.5,6.5,7.6,8.6,12.4
			c2.1,4.7,3.2,9.8,3.2,15.3C1099.8,612.7,1098.7,617.7,1096.6,622.5z M1086.8,595.5c-1.5-3.6-3.6-6.7-6.3-9.4
			c-2.7-2.7-5.8-4.8-9.4-6.3c-3.6-1.5-7.5-2.3-11.7-2.3c-4.1,0-8,0.8-11.7,2.3c-3.6,1.5-6.8,3.6-9.5,6.3c-2.7,2.7-4.8,5.8-6.4,9.4
			c-1.6,3.6-2.3,7.5-2.3,11.7c0,4.2,0.8,8.1,2.3,11.8c1.6,3.6,3.7,6.8,6.4,9.4c2.7,2.7,5.8,4.7,9.5,6.3c3.6,1.5,7.5,2.3,11.7,2.3
			c4.1,0,8-0.8,11.7-2.3c3.6-1.5,6.8-3.6,9.4-6.3c2.7-2.7,4.7-5.8,6.3-9.4c1.5-3.6,2.3-7.6,2.3-11.8
			C1089.1,603,1088.4,599.1,1086.8,595.5z"/>
		<path d="M1160.7,597.6c-0.8,2.5-2.3,4.8-4.3,6.9c-2,2-4.7,3.7-8.1,5c-3.4,1.3-7.7,1.9-12.8,1.9h-11.3v33.6h-10.4v-75.8h22.5
			c4.6,0,8.5,0.5,11.7,1.6c3.2,1.1,5.9,2.6,8,4.5c2.1,1.9,3.6,4.1,4.5,6.6c0.9,2.5,1.4,5.2,1.4,8
			C1161.9,592.5,1161.5,595.1,1160.7,597.6z M1150.4,585.5c-0.6-1.5-1.5-2.8-2.7-4c-1.2-1.2-2.8-2.1-4.8-2.7c-2-0.7-4.3-1-7.1-1
			h-11.6v25h11c2.9,0,5.4-0.3,7.4-1c2-0.7,3.7-1.5,5-2.7c1.3-1.1,2.2-2.5,2.8-4c0.6-1.5,0.9-3.2,0.9-4.9
			C1151.2,588.5,1151,587,1150.4,585.5z"/>
		<path d="M1219.8,597.6c-0.8,2.5-2.3,4.8-4.3,6.9c-2,2-4.7,3.7-8.1,5c-3.4,1.3-7.7,1.9-12.8,1.9h-11.3v33.6h-10.4v-75.8h22.5
			c4.6,0,8.5,0.5,11.7,1.6c3.2,1.1,5.9,2.6,8,4.5c2.1,1.9,3.6,4.1,4.5,6.6c0.9,2.5,1.4,5.2,1.4,8
			C1221,592.5,1220.6,595.1,1219.8,597.6z M1209.5,585.5c-0.6-1.5-1.5-2.8-2.7-4c-1.2-1.2-2.8-2.1-4.8-2.7c-2-0.7-4.3-1-7.1-1h-11.6
			v25h11c2.9,0,5.4-0.3,7.4-1c2-0.7,3.7-1.5,5-2.7c1.3-1.1,2.2-2.5,2.8-4c0.6-1.5,0.9-3.2,0.9-4.9
			C1210.3,588.5,1210,587,1209.5,585.5z"/>
		<path d="M1232.2,644.9v-75.6h44.7l-3.8,8.6h-30.8v24.7h30.2v8.6h-30.2v25.1h32.3l2.9,8.6H1232.2z"/>
		<path d="M1338.6,647.8l-25.3-37.2h-14.1V645h-10v-75.8h20.8c4.8,0,8.9,0.6,12.2,1.7c3.3,1.1,6,2.6,8.1,4.5c2.1,1.9,3.6,4,4.5,6.4
			c0.9,2.4,1.4,4.9,1.4,7.5c0,8.9-4.4,15-13.2,18.5l24.1,34.6L1338.6,647.8z M1321.4,581.3c-2.7-2.3-6.9-3.4-12.8-3.4h-9.5V602h9.7
			c5.6,0,9.8-1.1,12.5-3.3c2.7-2.2,4.1-5.1,4.1-8.8C1325.4,586.4,1324.1,583.5,1321.4,581.3z"/>
		<path d="M1642.7,644.4c-4.7,1.2-9.2,1.7-13.5,1.7c-5.9,0-11.3-1-16.4-2.9c-5-2-9.4-4.7-13.1-8.2c-3.7-3.5-6.6-7.6-8.7-12.4
			c-2.1-4.8-3.2-10-3.2-15.6c0-5.5,1-10.7,3.1-15.4c2-4.8,4.9-8.8,8.6-12.3c3.7-3.4,8-6.1,13-8.1c5-2,10.4-2.9,16.3-2.9
			c2.2,0,4.3,0.1,6.3,0.2c2,0.1,4.1,0.4,6.2,0.9c2.1,0.4,4.4,1.1,6.9,1.9c2.4,0.8,5.2,1.9,8.2,3.3l-3.5,9.3
			c-4.8-2.5-9.2-4.2-13.1-5.1c-4-0.9-7.9-1.4-11.7-1.4c-4.2,0-8.1,0.7-11.7,2.2c-3.6,1.5-6.7,3.6-9.3,6.2c-2.6,2.7-4.7,5.8-6.1,9.4
			c-1.5,3.6-2.2,7.6-2.2,11.9c0,3.8,0.6,7.4,1.9,11c1.2,3.6,3.1,6.7,5.7,9.5c2.5,2.8,5.8,5,9.6,6.7c3.9,1.7,8.4,2.5,13.7,2.5
			c3.6,0,6.8-0.3,9.5-0.9c2.7-0.6,5.4-1.5,7.9-2.8v-21.5l10-4.7v32C1652.1,641.5,1647.4,643.2,1642.7,644.4z"/>
		<path d="M1722.2,647.8l-25.3-37.2h-14.1V645h-10v-75.8h20.8c4.8,0,8.9,0.6,12.2,1.7c3.3,1.1,6,2.6,8.1,4.5c2.1,1.9,3.6,4,4.5,6.4
			c0.9,2.4,1.4,4.9,1.4,7.5c0,8.9-4.4,15-13.2,18.5l24.1,34.6L1722.2,647.8z M1705,581.3c-2.7-2.3-6.9-3.4-12.8-3.4h-9.5V602h9.7
			c5.6,0,9.8-1.1,12.5-3.3c2.7-2.2,4.1-5.1,4.1-8.8C1709,586.4,1707.7,583.5,1705,581.3z"/>
		<path d="M1796.4,648.5l-12.6-27.8h-31.9l-13,27.9l-9-4.3l34.3-74.1l5.8-2.6l35.8,76.7L1796.4,648.5z M1767.7,585.5l-12.1,26.5
			h24.1L1767.7,585.5z"/>
		<path d="M1861.2,597.6c-0.8,2.5-2.3,4.8-4.3,6.9c-2,2-4.7,3.7-8.1,5c-3.4,1.3-7.7,1.9-12.8,1.9h-11.3v33.6h-10.4v-75.8h22.5
			c4.6,0,8.5,0.5,11.7,1.6c3.2,1.1,5.9,2.6,8,4.5c2.1,1.9,3.6,4.1,4.5,6.6c0.9,2.5,1.4,5.2,1.4,8
			C1862.5,592.5,1862,595.1,1861.2,597.6z M1850.9,585.5c-0.6-1.5-1.5-2.8-2.7-4c-1.2-1.2-2.8-2.1-4.8-2.7c-2-0.7-4.3-1-7.1-1h-11.6
			v25h11c2.9,0,5.4-0.3,7.4-1c2-0.7,3.7-1.5,5-2.7c1.3-1.1,2.2-2.5,2.8-4c0.6-1.5,0.9-3.2,0.9-4.9
			C1851.8,588.5,1851.5,587,1850.9,585.5z"/>
		<path d="M1926.9,644v-32.5h-43.3V644l-10,3.5v-78.3h10v33.6h43.3v-33.6h10.2v78.3L1926.9,644z"/>
		<path d="M1954.6,644.9v-74.4l10.2-3.8v78.3H1954.6z"/>
		<path d="M2033.7,644.6c-4.7,0.9-9.3,1.3-13.6,1.3c-5.8,0-11.2-1-16.2-2.9c-5-2-9.3-4.7-12.9-8.1c-3.6-3.5-6.5-7.5-8.5-12.3
			c-2-4.7-3.1-9.9-3.1-15.5c0-5.8,1.1-11.1,3.3-15.9c2.2-4.8,5.2-8.9,8.9-12.3c3.7-3.4,8-6.1,12.8-8c4.8-1.9,9.9-2.8,15.1-2.8
			c4.4,0,8.8,0.5,13.4,1.4c4.6,0.9,9.5,2.6,14.8,5l-4.5,8.8c-3.8-1.9-7.6-3.4-11.4-4.5c-3.8-1.1-8-1.6-12.7-1.6
			c-4.1,0-8,0.7-11.6,2.2c-3.6,1.5-6.6,3.6-9.3,6.3c-2.6,2.7-4.7,5.9-6.1,9.5c-1.5,3.6-2.2,7.6-2.2,11.9c0,4.4,0.7,8.4,2.2,12
			c1.5,3.6,3.5,6.8,6.2,9.4c2.6,2.6,5.8,4.7,9.4,6.1c3.7,1.5,7.7,2.2,12,2.2c3.6,0,7.4-0.4,11.3-1.3c3.9-0.9,8.5-2.6,13.7-5.1
			l3.3,8.9C2043.3,641.9,2038.4,643.7,2033.7,644.6z"/>
		<path d="M2160.5,620.2c-1.4,4.5-3.7,8.6-6.8,12.3c-3.2,3.6-7.3,6.6-12.4,8.9c-5.1,2.3-11.4,3.5-18.9,3.5h-28.8v-75.6h27.5
			c8.1,0,14.8,1.2,20.1,3.5c5.3,2.4,9.6,5.4,12.8,9c3.2,3.6,5.4,7.7,6.7,12.1c1.3,4.4,2,8.7,2,12.9
			C2162.5,611.2,2161.8,615.7,2160.5,620.2z M2149.5,595.1c-1.5-3.6-3.6-6.6-6.3-9.2c-2.7-2.5-5.9-4.5-9.6-5.9
			c-3.7-1.4-7.9-2.1-12.5-2.1h-17.5v58.4h18.2c4,0,7.8-0.6,11.4-1.9c3.6-1.3,6.8-3.2,9.5-5.7c2.8-2.5,5-5.6,6.6-9.3
			c1.6-3.7,2.5-7.9,2.5-12.7C2151.7,602.6,2151,598.7,2149.5,595.1z"/>
		<path d="M2177.2,644.9v-75.6h44.7l-3.8,8.6h-30.8v24.7h30.2v8.6h-30.2v25.1h32.3l2.9,8.6H2177.2z"/>
		<path d="M2276.2,633.1c-1.3,2.9-3.1,5.3-5.3,7.2c-2.3,1.9-4.9,3.4-7.9,4.4c-3,1-6.2,1.5-9.6,1.5c-3.6,0-7.2-0.7-10.8-2
			c-3.6-1.3-7.4-3.2-11.3-5.8l3.8-9c3.3,2.2,6.3,4,9,5.5c2.7,1.5,5.4,2.2,8.1,2.2c4.5,0,8.2-1.1,11-3.3c2.8-2.2,4.3-5.4,4.3-9.6
			c0-2.3-0.5-4.3-1.6-5.8c-1.1-1.6-2.4-2.9-4.1-3.9c-1.7-1.1-3.7-2-5.9-2.7c-2.2-0.8-4.5-1.5-6.8-2.3c-2.3-0.8-4.5-1.7-6.7-2.6
			c-2.2-0.9-4.1-2.2-5.8-3.7c-1.7-1.5-3.1-3.3-4.1-5.5c-1.1-2.2-1.6-4.9-1.6-8.1c0-2.9,0.6-5.6,1.8-8.2c1.2-2.6,2.9-4.8,5-6.7
			c2.1-1.9,4.5-3.4,7.3-4.5c2.8-1.1,5.7-1.6,8.9-1.6c6.6,0,13.1,1.9,19.5,5.8l-3.9,8.6c-3.2-1.7-5.9-3.1-8.1-3.9
			c-2.2-0.9-4.5-1.3-6.9-1.3c-1.8,0-3.5,0.3-5.1,0.9c-1.6,0.6-2.9,1.4-4.1,2.5c-1.2,1.1-2.1,2.3-2.7,3.7c-0.7,1.4-1,3-1,4.6
			c0,2.9,0.9,5.2,2.7,6.8c1.8,1.6,4.1,2.9,6.8,4c2.7,1.1,5.7,2.1,8.9,3.1c3.2,0.9,6.2,2.2,8.9,3.8c2.7,1.6,5,3.6,6.8,6.2
			c1.8,2.5,2.7,6,2.7,10.2C2278.2,626.9,2277.5,630.2,2276.2,633.1z"/>
		<path d="M2291.6,644.9v-74.4l10.2-3.8v78.3H2291.6z"/>
		<path d="M2371.3,644.4c-4.7,1.2-9.2,1.7-13.5,1.7c-5.9,0-11.3-1-16.4-2.9c-5-2-9.4-4.7-13.1-8.2c-3.7-3.5-6.6-7.6-8.7-12.4
			c-2.1-4.8-3.2-10-3.2-15.6c0-5.5,1-10.7,3.1-15.4c2-4.8,4.9-8.8,8.6-12.3c3.7-3.4,8-6.1,13-8.1c5-2,10.4-2.9,16.3-2.9
			c2.2,0,4.3,0.1,6.3,0.2c2,0.1,4.1,0.4,6.2,0.9c2.1,0.4,4.4,1.1,6.9,1.9c2.4,0.8,5.2,1.9,8.2,3.3l-3.5,9.3
			c-4.8-2.5-9.2-4.2-13.1-5.1c-4-0.9-7.9-1.4-11.7-1.4c-4.2,0-8.1,0.7-11.7,2.2c-3.6,1.5-6.7,3.6-9.3,6.2c-2.6,2.7-4.7,5.8-6.1,9.4
			c-1.5,3.6-2.2,7.6-2.2,11.9c0,3.8,0.6,7.4,1.9,11c1.2,3.6,3.1,6.7,5.7,9.5c2.5,2.8,5.8,5,9.6,6.7c3.9,1.7,8.4,2.5,13.7,2.5
			c3.6,0,6.8-0.3,9.5-0.9c2.7-0.6,5.4-1.5,7.9-2.8v-21.5l10-4.7v32C2380.7,641.5,2375.9,643.2,2371.3,644.4z"/>
		<path d="M2463,644.7l-51.5-57.8v58h-10.4v-79.4l8,3.9l51.3,57.6v-57.8h10v79.4L2463,644.7z"/>
		<path d="M2488,644.9v-75.6h44.7l-3.8,8.6H2498v24.7h30.2v8.6H2498v25.1h32.3l2.9,8.6H2488z"/>
		<path d="M2594.4,647.8l-25.3-37.2h-14.1V645h-10v-75.8h20.8c4.8,0,8.9,0.6,12.2,1.7c3.3,1.1,6,2.6,8.1,4.5c2.1,1.9,3.6,4,4.5,6.4
			c0.9,2.4,1.4,4.9,1.4,7.5c0,8.9-4.4,15-13.2,18.5l24.1,34.6L2594.4,647.8z M2577.2,581.3c-2.7-2.3-6.9-3.4-12.8-3.4h-9.5V602h9.7
			c5.6,0,9.8-1.1,12.5-3.3c2.7-2.2,4.1-5.1,4.1-8.8C2581.2,586.4,2579.9,583.5,2577.2,581.3z"/>
	</g>
</g>
</svg>
