<?xml version="1.0" encoding="utf-8"?>
<!-- Generator: Adobe Illustrator 18.0.0, SVG Export Plug-In . SVG Version: 6.00 Build 0)  -->
<!DOCTYPE svg PUBLIC "-//W3C//DTD SVG 1.1//EN" "http://www.w3.org/Graphics/SVG/1.1/DTD/svg11.dtd">
<svg version="1.1" xmlns="http://www.w3.org/2000/svg" xmlns:xlink="http://www.w3.org/1999/xlink" x="0px" y="0px"
	 viewBox="0 0 291.9 291.9" enable-background="new 0 0 291.9 291.9" xml:space="preserve">
<g id="Calque_1">
	<circle fill="#EFC973" cx="-1484.7" cy="1321.7" r="241.1"/>
	<g id="Calque_2">
		<path d="M-1549.6,1498.1l-111.9-253.7h9.9h32.8h2h8l59,135.8c0,0,75.4-147,9.5-258.3c35.9,28.4,66,57.6,120.4,67.1
			c47.4,48.9,97,68.2,104.2,71.8c53.6,26.8,15.1,105.3,15.1,105.3s-6.2-44.9-58.5-66.9c-7.2-3-85.7-38.3-85.7-38.3L-1549.6,1498.1z"
			/>
		<path d="M-1435.3,1413.1c34.4,15.4,43.9,15.5,53.5,11.8c9.6-3.7,16.5-10.3,20.7-19.7c4.1-9.3,4.3-18.9,0.6-28.6
			c-3.6-9.7-10.2-16.7-19.7-20.9l-34.1-15l-15.1,34.2l-15.1,34.2l-20.1,45.5l-30.2,68.4l-45.7-20.2l30.2-68.4l35.2-79.7l35.2-79.7
			l45.7,20.2l34.1,15c21.9,9.7,37.3,25.7,46,48.4c8.8,22.6,8.2,44.9-1.4,66.8c-9.7,21.9-25.7,37.3-48.3,45.9
			c-22.6,8.6-44.8,8.1-91.6-12.8L-1435.3,1413.1z"/>
		<path fill="#EFC973" d="M-1416.7,1239.6c0,0-6.3-2.3-14-2.3c-7.7,0-17.7-16.1-17.7-16.1s9.9,2.9,17.7,2.9
			C-1422.9,1224.1-1416.7,1239.6-1416.7,1239.6z"/>
	</g>
</g>
<g id="Calque_3">
	<g>
		<g id="Calque_1_2_">
			<circle cx="-1482.2" cy="805.3" r="241.1"/>
		</g>
		<g id="Calque_2_2_">
			<path fill="#EFC973" d="M-1547.1,981.7l-111.8-253.8h9.9h32.8h2h8l59,135.8c0,0,75.4-147,9.5-258.3c35.9,28.4,66,57.6,120.4,67.1
				c47.4,48.9,97,68.2,104.2,71.8c53.6,26.8,15.1,105.3,15.1,105.3s-6.2-44.9-58.5-66.9c-7.2-3-85.7-38.3-85.7-38.3L-1547.1,981.7z"
				/>
			<path fill="#EFC973" d="M-1432.7,896.6c34.4,15.4,43.9,15.5,53.5,11.8c9.6-3.7,16.5-10.3,20.7-19.7c4.1-9.3,4.3-18.9,0.6-28.6
				c-3.6-9.7-10.2-16.7-19.7-20.9l-34.1-15l-15.1,34.2l-15.1,34.2l-20.1,45.5l-30.2,68.4l-45.7-20.2l30.2-68.4l35.2-79.7l35.2-79.7
				l45.7,20.2l34.1,15c21.9,9.7,37.3,25.7,46,48.4c8.7,22.7,8.2,44.9-1.4,66.8c-9.7,21.9-25.7,37.3-48.3,45.9
				c-22.6,8.6-44.8,8.1-91.6-12.8L-1432.7,896.6z"/>
			<path d="M-1414.1,723.1c0,0-6.3-2.3-14-2.3c-7.7,0-17.7-16.1-17.7-16.1s9.9,2.9,17.7,2.9
				C-1420.4,707.6-1414.1,723.1-1414.1,723.1z"/>
		</g>
	</g>
	<g>
		<path fill="#EFC973" d="M-842,1300.5l-211.6-602.6h18.7h62h3.8h15.2l111.6,318.3l111.6-318.3h19.9h81L-842,1300.5z"/>
		<path fill="#EFC973" d="M-613.1,1111.9l-25.4,56.2h-13.6h-3.1h-50.9h-16.7l177-396.7l177.5,396.7H-385h-50.9h-3.4h-13.6
			l-25.2-56.4l-1.2-2.7h-132.9L-613.1,1111.9z M-511.2,1039.9l-34.4-81.1l-34.6,81.1H-511.2z"/>
		<path fill="#EFC973" d="M-104.8,994.4V778.6h78.2v397.6L-260.8,953v216H-339V771.4L-104.8,994.4z"/>
		<path fill="#EFC973" d="M157.5,1051.8V915.2V778.6h78.2H294c37.5,0,69.7,13.3,96.6,40.2c26.9,26.9,40.2,59.1,40.2,96.6
			c0,37.5-13.3,69.7-40.2,96.4c-26.9,26.6-59.1,40-96.6,40h-58.4V1169h-78.2V1051.8z M294,974.1c16.2,0,30-5.8,41.4-17.2
			c11.4-11.4,17.2-25.2,17.2-41.4c0-16-5.8-29.8-17.2-41.4c-11.4-11.6-25.2-17.4-41.4-17.4h-58.4v58.6v58.6L294,974.1z"/>
		<path fill="#EFC973" d="M543,778.6v156.2h117V778.6h78.2V1169H660v-156.2H543V1169h-78.2V778.6H543z"/>
		<path fill="#EFC973" d="M876.7,1111.9l-25.4,56.2h-13.6h-3.1h-50.9H767l177-396.7l177.5,396.7h-16.7H1054h-3.4H1037l-25.2-56.4
			l-1.2-2.7H877.7L876.7,1111.9z M978.6,1039.9l-34.4-81.1l-34.6,81.1H978.6z"/>
		<path fill="#EFC973" d="M1437.4,1019.7V697.9h94.4v614.9l-282.6-318.6V1169h-94.4V689.1L1437.4,1019.7z"/>
	</g>
	<circle fill="#EFC973" cx="285.8" cy="1267.3" r="71"/>
	<g>
		<path d="M317.3,1267.8c-0.2,8.1-0.6,15-3.4,21.1c3.7,2.3,8.1,5,12,4.9l-0.1,15.2c-6.7,0-12.3-2.7-15.6-4.6
			c-2.3-1.4-4.2-2.4-5.7-3.7c-1.2,1.5-1.8,2-3.4,3.2c-4.7,3.6-13.5,5.7-19.8,5.7c-7.5,0-14.3-3-19.3-7.7c-5-4.9-7.8-11.1-7.8-18.5
			c0.2-9.5,5.8-14.7,10.8-19.6c0.2-0.2,1.2-1,1.4-1.1c-2.9-3.9-5.1-10.6-5.3-15c0-6.4,2.9-10.6,6.3-14c3.4-3.4,10.5-7.4,16.9-7.4
			c5.4,0,10.5,1.9,14.6,5.2s7,7.8,8.1,13.2l-16.3,3.5c-0.3-1.5-1.1-2.8-2.2-3.7c-1.1-0.9-2.6-1.5-4.2-1.5c-3.3,0-5.7,1.8-6.3,4.9
			c-0.3,1.7,3.6,8.7,4.1,9.6c1.5,2.5,4.9,7.5,10.3,12.9c1.6,1.6,6.4,6.9,8.5,8.8c0.7-3,0.6-6.4,0.9-11L317.3,1267.8z M292,1289.9
			c-1.9-1.7-11-9.1-15.6-16.6c-3,2.1-6.6,4.6-6.5,10.2c0,2.7,1.7,5.9,3.6,7.6c1.9,1.9,4.9,2.3,8,2.3c2.5,0,7.9-1.5,9.7-2.9
			C291.5,1290.5,291.7,1290.3,292,1289.9L292,1289.9z"/>
	</g>
	<g>
		<path fill="#FFFFFF" d="M-671.2,1303.1l-5.1-5l-21.4-55.3l-23.2,59.6l-5.2-4.1l-28.9-73.4l9.5-3.9l22.9,59.2l21.6-55.9l5.2-3.7
			l23.3,59.2l22.6-58.5l9.7,3.6L-671.2,1303.1z"/>
		<path fill="#FFFFFF" d="M-631.7,1299.3v-75.6h44.7l-3.8,8.6h-30.8v24.7h30.2v8.6h-30.2v25.1h32.3l2.9,8.6H-631.7z"/>
		<path fill="#FFFFFF" d="M-526.8,1287.2c-1.3,2.6-3.1,4.8-5.3,6.5c-2.3,1.8-5.1,3.1-8.4,4.1c-3.3,0.9-7,1.4-11,1.4h-23.2v-75.6
			h16.8c5.5,0,9.9,0.6,13.4,1.9c3.5,1.2,6.2,2.8,8.2,4.7c2,1.9,3.4,4,4.1,6.3c0.8,2.3,1.1,4.6,1.1,6.9c0,3.6-0.7,6.7-2.2,9.3
			c-1.5,2.5-3.8,4.8-6.8,6.8c4.9,1.2,8.7,3.5,11.3,6.8c2.6,3.3,3.9,7.4,3.9,12.4C-524.9,1281.8-525.5,1284.6-526.8,1287.2z
			 M-543.3,1238.6c-0.9-1.6-2.1-2.8-3.7-3.8c-1.6-0.9-3.4-1.6-5.6-2c-2.1-0.4-4.5-0.6-6.9-0.6h-5.1v24.6h5.3c3.2,0,5.9-0.3,8.1-0.9
			c2.2-0.6,4-1.4,5.3-2.5c1.3-1.1,2.3-2.4,2.9-3.9c0.6-1.5,0.9-3.2,0.9-5.1C-542,1242.1-542.4,1240.2-543.3,1238.6z M-536.4,1273.5
			c-0.5-1.5-1.5-2.9-2.9-4.1c-1.4-1.2-3.3-2.2-5.8-2.9c-2.4-0.8-5.6-1.1-9.5-1.1h-10v25.3h11.7c3.4,0,6.2-0.4,8.5-1.1
			c2.3-0.8,4-1.8,5.3-3c1.3-1.2,2.2-2.6,2.7-4c0.5-1.5,0.8-2.9,0.8-4.4C-535.6,1276.6-535.9,1275.1-536.4,1273.5z"/>
		<path fill="#FFFFFF" d="M-412.4,1274.6c-1.4,4.5-3.7,8.6-6.8,12.3c-3.2,3.6-7.3,6.6-12.4,8.9c-5.1,2.3-11.4,3.5-18.9,3.5h-28.8
			v-75.6h27.5c8.1,0,14.8,1.2,20.1,3.5c5.3,2.4,9.6,5.4,12.8,9c3.2,3.6,5.4,7.7,6.7,12.1c1.3,4.4,2,8.7,2,12.9
			C-410.3,1265.5-411,1270-412.4,1274.6z M-423.3,1249.5c-1.5-3.6-3.6-6.6-6.3-9.2c-2.7-2.5-5.9-4.5-9.6-5.9
			c-3.7-1.4-7.9-2.1-12.5-2.1h-17.5v58.4h18.2c4,0,7.8-0.6,11.4-1.9c3.6-1.3,6.8-3.2,9.5-5.7c2.8-2.5,5-5.6,6.6-9.3
			c1.6-3.7,2.5-7.9,2.5-12.7C-421.1,1256.9-421.8,1253-423.3,1249.5z"/>
		<path fill="#FFFFFF" d="M-395.6,1299.3v-75.6h44.7l-3.8,8.6h-30.8v24.7h30.2v8.6h-30.2v25.1h32.3l2.9,8.6H-395.6z"/>
		<path fill="#FFFFFF" d="M-311.7,1302.4l-5.2-4.4l-30.2-73.2l9.3-3.8l24.6,59.1l24.6-59.1l9.2,3.8L-311.7,1302.4z"/>
		<path fill="#FFFFFF" d="M-270.6,1299.3v-75.6h44.7l-3.8,8.6h-30.8v24.7h30.2v8.6h-30.2v25.1h32.3l2.9,8.6H-270.6z"/>
		<path fill="#FFFFFF" d="M-213.7,1299.3v-75.6h10v67h32.7l3.8,8.6H-213.7z"/>
		<path fill="#FFFFFF" d="M-83.5,1276.8c-2.1,4.7-5,8.8-8.6,12.4c-3.6,3.5-7.9,6.3-12.9,8.3c-4.9,2-10.2,3-15.9,3s-11-1-15.9-3
			c-4.9-2-9.2-4.8-12.8-8.3c-3.6-3.5-6.5-7.6-8.6-12.4c-2.1-4.7-3.1-9.8-3.1-15.3c0-5.5,1-10.5,3.1-15.3c2.1-4.7,4.9-8.8,8.6-12.4
			c3.6-3.5,7.9-6.3,12.8-8.3c4.9-2,10.2-3,15.9-3s11,1,15.9,3c4.9,2,9.2,4.8,12.9,8.3c3.6,3.5,6.5,7.6,8.6,12.4
			c2.1,4.7,3.2,9.8,3.2,15.3C-80.4,1267-81.4,1272.1-83.5,1276.8z M-93.3,1249.8c-1.5-3.6-3.6-6.7-6.3-9.4c-2.7-2.7-5.8-4.8-9.4-6.3
			c-3.6-1.5-7.5-2.3-11.7-2.3c-4.1,0-8,0.8-11.7,2.3c-3.6,1.5-6.8,3.6-9.5,6.3c-2.7,2.7-4.8,5.8-6.4,9.4c-1.6,3.6-2.3,7.5-2.3,11.7
			c0,4.2,0.8,8.1,2.3,11.8c1.6,3.6,3.7,6.8,6.4,9.4c2.7,2.7,5.8,4.7,9.5,6.3c3.6,1.5,7.5,2.3,11.7,2.3c4.1,0,8-0.8,11.7-2.3
			c3.6-1.5,6.8-3.6,9.4-6.3c2.7-2.7,4.7-5.8,6.3-9.4c1.5-3.6,2.3-7.6,2.3-11.8C-91,1257.3-91.8,1253.4-93.3,1249.8z"/>
		<path fill="#FFFFFF" d="M-19.5,1252c-0.8,2.5-2.3,4.8-4.3,6.9c-2,2-4.7,3.7-8.1,5c-3.4,1.3-7.7,1.9-12.8,1.9h-11.3v33.6h-10.4
			v-75.8h22.5c4.6,0,8.5,0.5,11.7,1.6c3.2,1.1,5.9,2.6,8,4.5c2.1,1.9,3.6,4.1,4.5,6.6c0.9,2.5,1.4,5.2,1.4,8
			C-18.2,1246.9-18.6,1249.4-19.5,1252z M-29.8,1239.8c-0.6-1.5-1.5-2.8-2.7-4c-1.2-1.2-2.8-2.1-4.8-2.7c-2-0.7-4.3-1-7.1-1h-11.6
			v25h11c2.9,0,5.4-0.3,7.4-1c2-0.7,3.7-1.5,5-2.7c1.3-1.1,2.2-2.5,2.8-4c0.6-1.5,0.9-3.2,0.9-4.9
			C-28.9,1242.9-29.2,1241.3-29.8,1239.8z"/>
		<path fill="#FFFFFF" d="M39.6,1252c-0.8,2.5-2.3,4.8-4.3,6.9c-2,2-4.7,3.7-8.1,5c-3.4,1.3-7.7,1.9-12.8,1.9H3.1v33.6H-7.2v-75.8
			h22.5c4.6,0,8.5,0.5,11.7,1.6c3.2,1.1,5.9,2.6,8,4.5c2.1,1.9,3.6,4.1,4.5,6.6c0.9,2.5,1.4,5.2,1.4,8
			C40.9,1246.9,40.4,1249.4,39.6,1252z M29.3,1239.8c-0.6-1.5-1.5-2.8-2.7-4c-1.2-1.2-2.8-2.1-4.8-2.7c-2-0.7-4.3-1-7.1-1H3.1v25h11
			c2.9,0,5.4-0.3,7.4-1c2-0.7,3.7-1.5,5-2.7c1.3-1.1,2.2-2.5,2.8-4c0.6-1.5,0.9-3.2,0.9-4.9C30.2,1242.9,29.9,1241.3,29.3,1239.8z"
			/>
		<path fill="#FFFFFF" d="M52.1,1299.3v-75.6h44.7l-3.8,8.6H62.1v24.7h30.2v8.6H62.1v25.1h32.3l2.9,8.6H52.1z"/>
		<path fill="#FFFFFF" d="M158.5,1302.1l-25.3-37.2H119v34.4h-10v-75.8h20.8c4.8,0,8.9,0.6,12.2,1.7c3.3,1.1,6,2.6,8.1,4.5
			c2.1,1.9,3.6,4,4.5,6.4c0.9,2.4,1.4,4.9,1.4,7.5c0,8.9-4.4,15-13.2,18.5l24.1,34.6L158.5,1302.1z M141.3,1235.6
			c-2.7-2.3-6.9-3.4-12.8-3.4H119v24.1h9.7c5.6,0,9.8-1.1,12.5-3.3c2.7-2.2,4.1-5.1,4.1-8.8C145.3,1240.7,143.9,1237.9,141.3,1235.6
			z"/>
		<path fill="#FFFFFF" d="M462.6,1298.7c-4.7,1.2-9.2,1.7-13.5,1.7c-5.9,0-11.3-1-16.4-2.9c-5-2-9.4-4.7-13.1-8.2
			c-3.7-3.5-6.6-7.6-8.7-12.4c-2.1-4.8-3.2-10-3.2-15.6c0-5.5,1-10.7,3.1-15.4c2-4.8,4.9-8.8,8.6-12.3c3.7-3.4,8-6.1,13-8.1
			c5-2,10.4-2.9,16.3-2.9c2.2,0,4.3,0.1,6.3,0.2c2,0.1,4.1,0.4,6.2,0.9c2.1,0.4,4.4,1.1,6.9,1.9c2.4,0.8,5.2,1.9,8.2,3.3l-3.5,9.3
			c-4.8-2.5-9.2-4.2-13.1-5.1c-4-0.9-7.9-1.4-11.7-1.4c-4.2,0-8.1,0.7-11.7,2.2c-3.6,1.5-6.7,3.6-9.3,6.2c-2.6,2.7-4.7,5.8-6.1,9.4
			c-1.5,3.6-2.2,7.6-2.2,11.9c0,3.8,0.6,7.4,1.9,11c1.2,3.6,3.1,6.7,5.7,9.5c2.5,2.8,5.8,5,9.6,6.7c3.9,1.7,8.4,2.5,13.7,2.5
			c3.6,0,6.8-0.3,9.5-0.9c2.7-0.6,5.4-1.5,7.9-2.8v-21.5l10-4.7v32C472,1295.8,467.2,1297.6,462.6,1298.7z"/>
		<path fill="#FFFFFF" d="M542,1302.1l-25.3-37.2h-14.1v34.4h-10v-75.8h20.8c4.8,0,8.9,0.6,12.2,1.7c3.3,1.1,6,2.6,8.1,4.5
			c2.1,1.9,3.6,4,4.5,6.4c0.9,2.4,1.4,4.9,1.4,7.5c0,8.9-4.4,15-13.2,18.5l24.1,34.6L542,1302.1z M524.8,1235.6
			c-2.7-2.3-6.9-3.4-12.8-3.4h-9.5v24.1h9.7c5.6,0,9.8-1.1,12.5-3.3c2.7-2.2,4.1-5.1,4.1-8.8
			C528.8,1240.7,527.5,1237.9,524.8,1235.6z"/>
		<path fill="#FFFFFF" d="M616.3,1302.9l-12.6-27.8h-31.9l-13,27.9l-9-4.3l34.3-74.1l5.8-2.6l35.8,76.7L616.3,1302.9z M587.6,1239.9
			l-12.1,26.5h24.1L587.6,1239.9z"/>
		<path fill="#FFFFFF" d="M681.1,1252c-0.8,2.5-2.3,4.8-4.3,6.9c-2,2-4.7,3.7-8.1,5c-3.4,1.3-7.7,1.9-12.8,1.9h-11.3v33.6h-10.4
			v-75.8h22.5c4.6,0,8.5,0.5,11.7,1.6c3.2,1.1,5.9,2.6,8,4.5c2.1,1.9,3.6,4.1,4.5,6.6c0.9,2.5,1.4,5.2,1.4,8
			C682.3,1246.9,681.9,1249.4,681.1,1252z M670.8,1239.8c-0.6-1.5-1.5-2.8-2.7-4c-1.2-1.2-2.8-2.1-4.8-2.7c-2-0.7-4.3-1-7.1-1h-11.6
			v25h11c2.9,0,5.4-0.3,7.4-1c2-0.7,3.7-1.5,5-2.7c1.3-1.1,2.2-2.5,2.8-4c0.6-1.5,0.9-3.2,0.9-4.9
			C671.6,1242.9,671.3,1241.3,670.8,1239.8z"/>
		<path fill="#FFFFFF" d="M746.7,1298.4v-32.5h-43.3v32.5l-10,3.5v-78.3h10v33.6h43.3v-33.6H757v78.3L746.7,1298.4z"/>
		<path fill="#FFFFFF" d="M774.4,1299.3v-74.4l10.2-3.8v78.3H774.4z"/>
		<path fill="#FFFFFF" d="M853.5,1298.9c-4.7,0.9-9.3,1.3-13.6,1.3c-5.8,0-11.2-1-16.2-2.9c-5-2-9.3-4.7-12.9-8.1
			c-3.6-3.5-6.5-7.5-8.5-12.3c-2-4.7-3.1-9.9-3.1-15.5c0-5.8,1.1-11.1,3.3-15.9c2.2-4.8,5.2-8.9,8.9-12.3c3.7-3.4,8-6.1,12.8-8
			c4.8-1.9,9.9-2.8,15.1-2.8c4.4,0,8.8,0.5,13.4,1.4c4.6,0.9,9.5,2.6,14.8,5l-4.5,8.8c-3.8-1.9-7.6-3.4-11.4-4.5
			c-3.8-1.1-8-1.6-12.7-1.6c-4.1,0-8,0.7-11.6,2.2c-3.6,1.5-6.6,3.6-9.3,6.3c-2.6,2.7-4.7,5.9-6.1,9.5c-1.5,3.6-2.2,7.6-2.2,11.9
			c0,4.4,0.7,8.4,2.2,12c1.5,3.6,3.5,6.8,6.2,9.4c2.6,2.6,5.8,4.7,9.4,6.1c3.7,1.5,7.7,2.2,12,2.2c3.6,0,7.4-0.4,11.3-1.3
			c3.9-0.9,8.5-2.6,13.7-5.1l3.3,8.9C863.1,1296.3,858.3,1298.1,853.5,1298.9z"/>
		<path fill="#FFFFFF" d="M980.3,1274.6c-1.4,4.5-3.7,8.6-6.8,12.3c-3.2,3.6-7.3,6.6-12.4,8.9c-5.1,2.3-11.4,3.5-18.9,3.5h-28.8
			v-75.6h27.5c8.1,0,14.8,1.2,20.1,3.5c5.3,2.4,9.6,5.4,12.8,9c3.2,3.6,5.4,7.7,6.7,12.1c1.3,4.4,2,8.7,2,12.9
			C982.4,1265.5,981.7,1270,980.3,1274.6z M969.4,1249.5c-1.5-3.6-3.6-6.6-6.3-9.2c-2.7-2.5-5.9-4.5-9.6-5.9
			c-3.7-1.4-7.9-2.1-12.5-2.1h-17.5v58.4h18.2c4,0,7.8-0.6,11.4-1.9c3.6-1.3,6.8-3.2,9.5-5.7c2.8-2.5,5-5.6,6.6-9.3
			c1.6-3.7,2.5-7.9,2.5-12.7C971.6,1256.9,970.8,1253,969.4,1249.5z"/>
		<path fill="#FFFFFF" d="M997.1,1299.3v-75.6h44.7l-3.8,8.6h-30.8v24.7h30.2v8.6h-30.2v25.1h32.3l2.9,8.6H997.1z"/>
		<path fill="#FFFFFF" d="M1096.1,1287.4c-1.3,2.9-3.1,5.3-5.3,7.2c-2.3,1.9-4.9,3.4-7.9,4.4c-3,1-6.2,1.5-9.6,1.5
			c-3.6,0-7.2-0.7-10.8-2c-3.6-1.3-7.4-3.2-11.3-5.8l3.8-9c3.3,2.2,6.3,4,9,5.5c2.7,1.5,5.4,2.2,8.1,2.2c4.5,0,8.2-1.1,11-3.3
			c2.8-2.2,4.3-5.4,4.3-9.6c0-2.3-0.5-4.3-1.6-5.8c-1.1-1.6-2.4-2.9-4.1-3.9c-1.7-1.1-3.7-2-5.9-2.7c-2.2-0.8-4.5-1.5-6.8-2.3
			c-2.3-0.8-4.5-1.7-6.7-2.6c-2.2-0.9-4.1-2.2-5.8-3.7c-1.7-1.5-3.1-3.3-4.1-5.5c-1.1-2.2-1.6-4.9-1.6-8.1c0-2.9,0.6-5.6,1.8-8.2
			c1.2-2.6,2.9-4.8,5-6.7c2.1-1.9,4.5-3.4,7.3-4.5c2.8-1.1,5.7-1.6,8.9-1.6c6.6,0,13.1,1.9,19.5,5.8l-3.9,8.6
			c-3.2-1.7-5.9-3.1-8.1-3.9c-2.2-0.9-4.5-1.3-6.9-1.3c-1.8,0-3.5,0.3-5.1,0.9c-1.6,0.6-2.9,1.4-4.1,2.5c-1.2,1.1-2.1,2.3-2.7,3.7
			c-0.7,1.4-1,3-1,4.6c0,2.9,0.9,5.2,2.7,6.8c1.8,1.6,4.1,2.9,6.8,4c2.7,1.1,5.7,2.1,8.9,3.1c3.2,0.9,6.2,2.2,8.9,3.8
			c2.7,1.6,5,3.6,6.8,6.2c1.8,2.5,2.7,6,2.7,10.2C1098,1281.2,1097.4,1284.6,1096.1,1287.4z"/>
		<path fill="#FFFFFF" d="M1111.4,1299.3v-74.4l10.2-3.8v78.3H1111.4z"/>
		<path fill="#FFFFFF" d="M1191.1,1298.7c-4.7,1.2-9.2,1.7-13.5,1.7c-5.9,0-11.3-1-16.4-2.9c-5-2-9.4-4.7-13.1-8.2
			c-3.7-3.5-6.6-7.6-8.7-12.4c-2.1-4.8-3.2-10-3.2-15.6c0-5.5,1-10.7,3.1-15.4c2-4.8,4.9-8.8,8.6-12.3c3.7-3.4,8-6.1,13-8.1
			c5-2,10.4-2.9,16.3-2.9c2.2,0,4.3,0.1,6.3,0.2c2,0.1,4.1,0.4,6.2,0.9c2.1,0.4,4.4,1.1,6.9,1.9c2.4,0.8,5.2,1.9,8.2,3.3l-3.5,9.3
			c-4.8-2.5-9.2-4.2-13.1-5.1c-4-0.9-7.9-1.4-11.7-1.4c-4.2,0-8.1,0.7-11.7,2.2c-3.6,1.5-6.7,3.6-9.3,6.2c-2.6,2.7-4.7,5.8-6.1,9.4
			c-1.5,3.6-2.2,7.6-2.2,11.9c0,3.8,0.6,7.4,1.9,11c1.2,3.6,3.1,6.7,5.7,9.5c2.5,2.8,5.8,5,9.6,6.7c3.9,1.7,8.4,2.5,13.7,2.5
			c3.6,0,6.8-0.3,9.5-0.9c2.7-0.6,5.4-1.5,7.9-2.8v-21.5l10-4.7v32C1200.5,1295.8,1195.8,1297.6,1191.1,1298.7z"/>
		<path fill="#FFFFFF" d="M1282.8,1299l-51.5-57.8v58H1221v-79.4l8,3.9l51.3,57.6v-57.8h10v79.4L1282.8,1299z"/>
		<path fill="#FFFFFF" d="M1307.8,1299.3v-75.6h44.7l-3.8,8.6h-30.8v24.7h30.2v8.6h-30.2v25.1h32.3l2.9,8.6H1307.8z"/>
		<path fill="#FFFFFF" d="M1414.2,1302.1l-25.3-37.2h-14.1v34.4h-10v-75.8h20.8c4.8,0,8.9,0.6,12.2,1.7c3.3,1.1,6,2.6,8.1,4.5
			c2.1,1.9,3.6,4,4.5,6.4c0.9,2.4,1.4,4.9,1.4,7.5c0,8.9-4.4,15-13.2,18.5l24.1,34.6L1414.2,1302.1z M1397,1235.6
			c-2.7-2.3-6.9-3.4-12.8-3.4h-9.5v24.1h9.7c5.6,0,9.8-1.1,12.5-3.3c2.7-2.2,4.1-5.1,4.1-8.8C1401,1240.7,1399.7,1237.9,1397,1235.6
			z"/>
	</g>
	<circle fill="none" stroke="#000000" stroke-width="26" stroke-miterlimit="10" cx="145.8" cy="146" r="118.3"/>
</g>
</svg>
